<svg width="54" height="38" viewBox="0 0 54 38" fill="none" xmlns="http://www.w3.org/2000/svg">
<path d="M30.289 14.4903C30.289 5.61868 35.4901 0 42.6799 0C49.4108 0 54 4.58366 54 11.0895C54 17.5953 49.5637 21.2918 44.0567 21.2918C42.3739 21.2918 40.9972 20.9961 39.7734 20.5525C39.7734 25.7276 44.5156 29.7198 51.0935 30.9027V38C38.8555 36.5214 30.289 26.9105 30.289 14.4903ZM0 14.4903C0 5.61868 5.20113 0 12.3909 0C19.1218 0 23.711 4.58366 23.711 11.0895C23.711 17.5953 19.4278 21.2918 13.9207 21.2918C12.238 21.2918 10.8612 20.9961 9.63739 20.5525C9.63739 25.7276 14.2266 29.7198 20.8045 30.9027V38C8.56657 36.5214 0 26.9105 0 14.4903Z" fill="#126881" fill-opacity="0.7"/>
</svg>
